PathFileType	4	(X/Y/Z)	/Users/itak/Documents/Research/Walk-IL/dataset/trc/00340_00011.trc
DataRate	CameraRate	NumFrames	NumMarkers	Units	OrigDataRate	OrigDataStartFrame	OrigNumFrames
100.000000	100.000000	4	53	mm	100.000000	714	817
Frame#	Time	RPSI			LPSI			L3			STRN			T10			C7			CLAV			RBAK			LBAK			LSHO			LUPA			LAEL			LAOL			LWTS			LWPS			LFRA			LIFD			LHPS			LHTS			RSHO			RUPA			RAEL			RAOL			RWTS			RWPS			RFRA			RIFD			RHTS			RHPS			RBHD			LFHD			RFHD			LBHD			LHIP			RHIP			RASI			LASI			LKNE			LTHI			LANK			LTIP			LTOE			LMT1			LMT5			LHEE			RKNE			RTHI			RANK			RTIP			RTOE			RMT1			RMT5			RHEE			
		X1	Y1	Z1	X2	Y2	Z2	X3	Y3	Z3	X4	Y4	Z4	X5	Y5	Z5	X6	Y6	Z6	X7	Y7	Z7	X8	Y8	Z8	X9	Y9	Z9	X10	Y10	Z10	X11	Y11	Z11	X12	Y12	Z12	X13	Y13	Z13	X14	Y14	Z14	X15	Y15	Z15	X16	Y16	Z16	X17	Y17	Z17	X18	Y18	Z18	X19	Y19	Z19	X20	Y20	Z20	X21	Y21	Z21	X22	Y22	Z22	X23	Y23	Z23	X24	Y24	Z24	X25	Y25	Z25	X26	Y26	Z26	X27	Y27	Z27	X28	Y28	Z28	X29	Y29	Z29	X30	Y30	Z30	X31	Y31	Z31	X32	Y32	Z32	X33	Y33	Z33	X34	Y34	Z34	X35	Y35	Z35	X36	Y36	Z36	X37	Y37	Z37	X38	Y38	Z38	X39	Y39	Z39	X40	Y40	Z40	X41	Y41	Z41	X42	Y42	Z42	X43	Y43	Z43	X44	Y44	Z44	X45	Y45	Z45	X46	Y46	Z46	X47	Y47	Z47	X48	Y48	Z48	X49	Y49	Z49	X50	Y50	Z50	X51	Y51	Z51	X52	Y52	Z52	X53	Y53	Z53	

715	7.140000000000001	-225.0988616943359	987.96484375	1209.250732421875	-242.1484069824219	990.9925537109375	1081.3818359375	-234.4528503417969	1039.967529296875	1149.621704101562	-25.28446960449219	1238.513793945312	1110.992919921875	-259.9775390625	1157.286254882812	1143.664672851562	-236.5873107910156	1407.048828125	1113.072509765625	-76.69109344482422	1361.014770507812	1106.089111328125	-268.7829895019531	1268.935180664062	1191.452514648438	-253.5654754638672	1364.821411132812	1015.351501464844	-175.7031860351562	1382.927978515625	950.0186767578125	-200.6696929931641	1260.985961914062	891.9755859375	-193.7877349853516	1057.239990234375	887.3978881835938	-240.8663024902344	1048.678466796875	956.1959228515625	-95.2412109375	812.5562133789062	918.9837646484375	-146.3154449462891	800.7971801757812	873.39111328125	-182.9845886230469	951.9161987304688	880.3706665039062	-97.59022521972656	651.7598266601562	931.4307250976562	-151.3080596923828	730.6486206054688	884.2384643554688	-90.41654968261719	732.4617309570312	905.6514892578125	-165.6909790039062	1405.404663085938	1269.519409179688	-167.4435577392578	1344.63818359375	1337.553100585938	-136.9653167724609	1084.475463867188	1400.694946289062	-181.6770477294922	1065.586547851562	1318.72607421875	-8.914642333984375	864.7166137695312	1374.435546875	-43.18574905395508	850.7532958984375	1441.289916992188	-105.9962921142578	1020.212280273438	1414.207885742188	20.16075897216797	696.2551879882812	1390.6513671875	30.06656837463379	768.2756958007812	1397.182739257812	-20.68751525878906	767.7865600585938	1444.465087890625	-193.0728912353516	1622.273193359375	1167.6416015625	-12.11111545562744	1624.031372070312	1063.552001953125	-30.29671478271484	1631.366088867188	1162.791015625	-193.9606170654297	1607.03271484375	1023.854248046875	-175.1317291259766	939.8202514648438	968.8486938476562	-134.2169494628906	930.1438598632812	1306.536987304688	-34.59253692626953	962.2930908203125	1255.152221679688	-44.30072784423828	963.7139282226562	1012.123352050781	-72.15589904785156	474.5234985351562	990.7127075195312	-91.11902618408203	614.5769653320312	971.5011596679688	-194.7686920166016	57.80703353881836	1032.425537109375	-137.4573822021484	259.8353881835938	999.0173950195312	15.53497314453125	86.59995269775391	1048.08984375	-39.97214889526367	59.41255950927734	1100.171142578125	-76.37356567382812	70.9129638671875	994.7645263671875	-214.0243988037109	51.90570068359375	1104.787109375	-80.29116821289062	468.4962463378906	1288.646606445312	-51.36981582641602	728.3916625976562	1303.411254882812	-139.0026702880859	47.99577713012695	1268.70654296875	-71.02825164794922	348.6624755859375	1279.725463867188	54.91144943237305	45.54917144775391	1215.994140625	1.153653264045715	45.08324432373047	1174.693603515625	-39.60618591308594	36.27509689331055	1286.506958007812	-188.7977142333984	52.88051605224609	1218.549926757812	
716	7.15	-222.6378326416016	988.1929931640625	1210.273071289062	-239.8307037353516	991.03857421875	1082.497436523438	-231.8490600585938	1039.79833984375	1150.488525390625	-23.16540908813477	1238.449951171875	1111.894775390625	-257.666748046875	1156.984741210938	1144.512573242188	-234.6614227294922	1406.854736328125	1114.256713867188	-74.72280120849609	1360.94384765625	1107.2236328125	-266.7978210449219	1268.574584960938	1192.38916015625	-251.6793212890625	1364.805419921875	1016.504943847656	-173.7545471191406	1382.947875976562	951.0889282226562	-198.7886505126953	1261.008911132812	893.1663818359375	-191.7056732177734	1057.179565429688	889.0791015625	-238.9043426513672	1048.767456054688	957.9005126953125	-92.84683990478516	812.7365112304688	921.7914428710938	-143.6187744140625	800.6618041992188	875.9777221679688	-180.7469329833984	951.8668823242188	882.4349975585938	-95.10968017578125	652.0640869140625	935.4861450195312	-148.6494445800781	730.54345703125	887.3599243164062	-87.88208770751953	732.5167236328125	909.0133666992188	-163.7453308105469	1404.939331054688	1270.732788085938	-165.4665069580078	1343.913818359375	1338.55517578125	-134.5615539550781	1083.564697265625	1400.7626953125	-179.4611206054688	1064.953125	1318.839477539062	-7.024116992950439	863.5684204101562	1373.238647460938	-40.56764221191406	849.7360229492188	1440.412231445312	-103.4651412963867	1019.3564453125	1413.995483398438	21.75288772583008	695.125732421875	1388.910888671875	31.92568588256836	767.025634765625	1395.39013671875	-18.32108879089355	766.6619262695312	1443.224853515625	-191.7625274658203	1621.945556640625	1169.284057617188	-10.88174533843994	1624.554809570312	1064.957885742188	-29.00066947937012	1631.594482421875	1164.25830078125	-192.751220703125	1607.006713867188	1025.46875	-173.7119293212891	939.7811889648438	970.5078735351562	-131.7095642089844	930.4265747070312	1307.514404296875	-32.12451934814453	962.1497192382812	1255.904174804688	-42.07077789306641	963.2864990234375	1012.767456054688	-71.96125793457031	473.8637084960938	990.9450073242188	-91.28571319580078	614.1912231445312	971.8892211914062	-187.7957916259766	55.69710540771484	1032.35400390625	-133.5419769287109	258.6431884765625	999.0442504882812	22.13225936889648	86.94170379638672	1047.99609375	-32.8990364074707	59.16521835327148	1100.073364257812	-69.66366577148438	70.140869140625	994.6758422851562	-206.9585571289062	49.56591415405273	1104.804931640625	-80.31189727783203	468.4916687011719	1290.191040039062	-49.92937850952148	728.4279174804688	1304.68994140625	-139.0629425048828	47.78097534179688	1268.97705078125	-71.23928070068359	348.643310546875	1281.247192382812	54.91976928710938	45.43516540527344	1216.29736328125	1.158035635948181	45.36120223999023	1175.064697265625	-39.61314010620117	35.94823455810547	1286.849975585938	-188.7578277587891	53.03629302978516	1218.925415039062	
717	7.16	-220.2630767822266	988.4420166015625	1211.291259765625	-237.5815582275391	991.052734375	1083.610595703125	-229.3031005859375	1039.58544921875	1151.315795898438	-21.06997489929199	1238.35595703125	1112.732177734375	-255.4052734375	1156.677734375	1145.185180664062	-232.7422943115234	1406.638671875	1115.234497070312	-72.76868438720703	1360.846557617188	1108.25146484375	-264.8741149902344	1268.19091796875	1193.121215820312	-249.7386474609375	1364.758911132812	1017.449462890625	-171.7189331054688	1382.952270507812	951.9942626953125	-196.7850646972656	1261.0361328125	894.1465454101562	-189.4774017333984	1057.12109375	890.5191650390625	-236.8788604736328	1048.833251953125	959.3424682617188	-90.35169219970703	812.9164428710938	924.3306884765625	-140.7859191894531	800.5377807617188	878.2540283203125	-178.3613739013672	951.8312377929688	884.2334594726562	-92.68022918701172	652.29296875	939.396728515625	-145.8711242675781	730.4437866210938	890.1525268554688	-85.23526000976562	732.585693359375	912.071533203125	-161.9182434082031	1404.458984375	1271.787109375	-163.6585388183594	1343.173706054688	1339.409545898438	-132.385498046875	1082.631958007812	1400.640747070312	-177.3938446044922	1064.3046875	1318.73046875	-5.375284671783447	862.3543701171875	1371.94970703125	-38.22220993041992	848.725830078125	1439.454833984375	-101.161506652832	1018.487426757812	1413.632568359375	23.05399131774902	693.9573974609375	1387.249389648438	33.54708099365234	765.74609375	1393.623779296875	-16.21681594848633	765.5488891601562	1441.9677734375	-190.5087890625	1621.578247070312	1170.813110351562	-9.66215991973877	1625.057006835938	1066.332885742188	-27.75622940063477	1631.784057617188	1165.677978515625	-191.5267181396484	1606.978149414062	1026.9521484375	-172.1072082519531	939.5602416992188	972.011474609375	-129.3141632080078	930.7843017578125	1308.516967773438	-29.77218055725098	962.0191040039062	1256.619140625	-39.89033126831055	962.8242797851562	1013.408874511719	-71.4534912109375	473.2448120117188	990.623046875	-91.01304626464844	613.9281616210938	971.909423828125	-181.8907623291016	54.08121109008789	1031.310791015625	-129.9904022216797	257.6928405761719	998.3300170898438	27.80545806884766	86.75567626953125	1047.060302734375	-26.92806625366211	58.61627197265625	1099.103271484375	-63.91402435302734	69.32486724853516	993.685302734375	-200.9841156005859	47.77692031860352	1103.868041992188	-80.34142303466797	468.4801635742188	1291.825439453125	-48.60193634033203	728.4767456054688	1306.029052734375	-139.1467437744141	47.5551643371582	1269.266845703125	-71.45245361328125	348.5904541015625	1282.781982421875	54.91772079467773	45.34139251708984	1216.601684570312	1.155247092247009	45.65049362182617	1175.489135742188	-39.6253662109375	35.59077453613281	1287.21337890625	-188.7415313720703	53.18635940551758	1219.355590820312	
718	7.17	-217.9822845458984	988.7178955078125	1212.298583984375	-235.3898162841797	991.05224609375	1084.703857421875	-226.829833984375	1039.342407226562	1152.110717773438	-19.00116539001465	1238.238525390625	1113.50634765625	-253.2030792236328	1156.380981445312	1145.67919921875	-230.8272094726562	1406.416015625	1116.006591796875	-70.8233642578125	1360.727661132812	1109.169799804688	-263.0148620605469	1267.802124023438	1193.653564453125	-247.7356567382812	1364.689208984375	1018.181457519531	-169.5966339111328	1382.950927734375	952.743408203125	-194.6506195068359	1261.062866210938	894.92041015625	-187.1046752929688	1057.0693359375	891.7183837890625	-234.7781829833984	1048.876708984375	960.5082397460938	-87.78451538085938	813.080810546875	926.5636596679688	-137.8574676513672	800.435546875	880.1802978515625	-175.8369903564453	951.8087158203125	885.7525024414062	-90.33810424804688	652.4122924804688	943.0917358398438	-143.0025024414062	730.3457641601562	892.5488891601562	-82.50704193115234	732.6611938476562	914.75341796875	-160.1990203857422	1403.976318359375	1272.681396484375	-162.0061645507812	1342.435668945312	1340.1181640625	-130.4322662353516	1081.701171875	1400.349243164062	-175.4704284667969	1063.651733398438	1318.41943359375	-3.941573858261108	861.1243896484375	1370.616821289062	-36.15658950805664	847.736572265625	1438.435302734375	-99.09243774414062	1017.61572265625	1413.136840820312	24.09211921691895	692.7703247070312	1385.657958984375	34.93643188476562	764.4591064453125	1391.90576171875	-14.38033294677734	764.45556640625	1440.70654296875	-189.306884765625	1621.1796875	1172.220458984375	-8.455451011657715	1625.55078125	1067.681274414062	-26.56299781799316	1631.9462890625	1167.050903320312	-190.281494140625	1606.947021484375	1028.299194335938	-170.2972564697266	939.1829833984375	973.3378295898438	-127.0834884643555	931.2154541015625	1309.5751953125	-27.54756546020508	961.90869140625	1257.315185546875	-37.74641799926758	962.3663330078125	1014.07177734375	-70.66647338867188	472.6851196289062	989.7586669921875	-90.31564331054688	613.7748413085938	971.6027221679688	-177.0406646728516	52.94303894042969	1029.25830078125	-126.850341796875	257.0092163085938	996.8666381835938	32.57021713256836	86.10067749023438	1045.166870117188	-22.01096534729004	57.75589752197266	1097.143676757812	-59.12610244750977	68.52611541748047	991.7012329101562	-196.0606689453125	46.47172927856445	1101.899780273438	-80.37651062011719	468.4459533691406	1293.485107421875	-47.39750671386719	728.5128784179688	1307.40380859375	-139.2442016601562	47.33634567260742	1269.55029296875	-71.66033172607422	348.5010986328125	1284.261840820312	54.90845108032227	45.27376174926758	1216.893188476562	1.145582675933838	45.92794799804688	1175.933349609375	-39.64093017578125	35.22971343994141	1287.572021484375	-188.7541198730469	53.30659866333008	1219.794189453125	
